<svg xmlns="http://www.w3.org/2000/svg" viewBox="0 0 900 675" width="900" height="675" role="img" aria-label="Bouquet aux tons poudres"><defs><filter id="g1011"><feTurbulence type="fractalNoise" baseFrequency="0.85" numOctaves="3" seed="1011"/><feColorMatrix type="saturate" values="0"/><feComponentTransfer><feFuncA type="linear" slope="0.055"/></feComponentTransfer></filter></defs><rect width="900" height="675" fill="#F6EFEA"/><circle cx="450" cy="297" r="284" fill="#FFFFFF" opacity=".45"/><path d="M300,444 L450,668 L600,444 Z" fill="#E7D7CB" opacity=".95"/><path d="M300,444 L450,668 L434,444 Z" fill="#000000" opacity=".07"/><rect x="392" y="562" width="116" height="13" rx="6" fill="#5C7A5E" opacity=".8"/><path d="M450,540 Q400,401 307.2,262.1" fill="none" stroke="#5C7A5E" stroke-width="3.4" stroke-linecap="round" opacity=".85"/><path d="M450,540 Q407,408 316.4,276.4" fill="none" stroke="#5C7A5E" stroke-width="3.4" stroke-linecap="round" opacity=".85"/><path d="M450,540 Q414,390 347.7,239.1" fill="none" stroke="#5C7A5E" stroke-width="3.4" stroke-linecap="round" opacity=".85"/><path d="M450,540 Q421,400 339.4,260.0" fill="none" stroke="#5C7A5E" stroke-width="3.4" stroke-linecap="round" opacity=".85"/><path d="M450,540 Q429,377 360.1,213.1" fill="none" stroke="#5C7A5E" stroke-width="3.4" stroke-linecap="round" opacity=".85"/><path d="M450,540 Q436,390 394.6,239.5" fill="none" stroke="#5C7A5E" stroke-width="3.4" stroke-linecap="round" opacity=".85"/><path d="M450,540 Q443,373 426.7,206.4" fill="none" stroke="#5C7A5E" stroke-width="3.4" stroke-linecap="round" opacity=".85"/><path d="M450,540 Q450,375 450.0,210.7" fill="none" stroke="#5C7A5E" stroke-width="3.4" stroke-linecap="round" opacity=".85"/><path d="M450,540 Q457,375 479.0,209.6" fill="none" stroke="#5C7A5E" stroke-width="3.4" stroke-linecap="round" opacity=".85"/><path d="M450,540 Q464,380 495.7,219.7" fill="none" stroke="#5C7A5E" stroke-width="3.4" stroke-linecap="round" opacity=".85"/><path d="M450,540 Q471,390 531.1,239.0" fill="none" stroke="#5C7A5E" stroke-width="3.4" stroke-linecap="round" opacity=".85"/><path d="M450,540 Q479,382 526.2,223.7" fill="none" stroke="#5C7A5E" stroke-width="3.4" stroke-linecap="round" opacity=".85"/><path d="M450,540 Q486,400 542.0,260.3" fill="none" stroke="#5C7A5E" stroke-width="3.4" stroke-linecap="round" opacity=".85"/><path d="M450,540 Q493,388 585.9,235.4" fill="none" stroke="#5C7A5E" stroke-width="3.4" stroke-linecap="round" opacity=".85"/><path d="M450,540 Q500,389 581.3,237.6" fill="none" stroke="#5C7A5E" stroke-width="3.4" stroke-linecap="round" opacity=".85"/><path d="M455.5,259.2 Q399.8,217.3 332.2,234.5 Q387.9,276.5 455.5,259.2Z" fill="#4E6B50" opacity=".9"/><path d="M443.2,260.9 Q413.1,219.8 362.1,217.6 Q392.3,258.7 443.2,260.9Z" fill="#4E6B50" opacity=".9"/><path d="M446.7,275.5 Q444.6,223.5 402.7,192.7 Q404.8,244.6 446.7,275.5Z" fill="#4E6B50" opacity=".9"/><path d="M433.6,246.6 Q502.5,224.1 528.0,156.2 Q459.1,178.7 433.6,246.6Z" fill="#4E6B50" opacity=".9"/><path d="M468.1,254.1 Q430.2,225.3 384.1,236.9 Q421.9,265.7 468.1,254.1Z" fill="#4E6B50" opacity=".9"/><path d="M578.7,291.4 Q634.7,276.4 658.1,223.4 Q602.1,238.3 578.7,291.4Z" fill="#4E6B50" opacity=".9"/><path d="M396.8,277.7 Q364.6,232.6 309.3,229.5 Q341.5,274.6 396.8,277.7Z" fill="#4E6B50" opacity=".9"/><path d="M432.7,342.4 Q403.4,294.0 347.3,286.6 Q376.6,335.0 432.7,342.4Z" fill="#4E6B50" opacity=".9"/><path d="M331.0,278.3 Q309.0,209.7 241.7,183.9 Q263.7,252.6 331.0,278.3Z" fill="#4E6B50" opacity=".9"/><path d="M399.9,272.8 Q432.0,241.9 428.0,197.5 Q395.9,228.4 399.9,272.8Z" fill="#4E6B50" opacity=".9"/><path d="M421.8,278.0 Q463.3,268.2 481.7,229.7 Q440.2,239.5 421.8,278.0Z" fill="#4E6B50" opacity=".9"/><path d="M490.4,325.3 Q518.1,294.0 511.0,252.9 Q483.3,284.1 490.4,325.3Z" fill="#4E6B50" opacity=".9"/><path d="M453.6,364.1 Q517.6,329.7 530.8,258.4 Q466.9,292.7 453.6,364.1Z" fill="#4E6B50" opacity=".9"/><path d="M392.1,338.2 Q427.3,298.6 418.5,246.4 Q383.3,285.9 392.1,338.2Z" fill="#4E6B50" opacity=".9"/><path d="M392.2,267.6 Q422.7,234.3 415.8,189.7 Q385.3,223.0 392.2,267.6Z" fill="#4E6B50" opacity=".9"/><path d="M547.2,242.6 Q612.8,242.4 653.8,191.1 Q588.1,191.3 547.2,242.6Z" fill="#4E6B50" opacity=".9"/><ellipse cx="323.6" cy="267.7" rx="16.8" ry="10.6" fill="#E3A9A2" transform="rotate(21.0 323.6 267.7)" opacity=".95"/><ellipse cx="310.5" cy="279.2" rx="16.8" ry="10.6" fill="#E3A9A2" transform="rotate(81.0 310.5 279.2)" opacity=".95"/><ellipse cx="294.0" cy="273.5" rx="16.8" ry="10.6" fill="#E3A9A2" transform="rotate(141.0 294.0 273.5)" opacity=".95"/><ellipse cx="290.7" cy="256.4" rx="16.8" ry="10.6" fill="#E3A9A2" transform="rotate(201.0 290.7 256.4)" opacity=".95"/><ellipse cx="303.8" cy="245.0" rx="16.8" ry="10.6" fill="#E3A9A2" transform="rotate(261.0 303.8 245.0)" opacity=".95"/><ellipse cx="320.3" cy="250.6" rx="16.8" ry="10.6" fill="#E3A9A2" transform="rotate(321.0 320.3 250.6)" opacity=".95"/><circle cx="307.2" cy="262.1" r="9.0" fill="#C97F62"/><ellipse cx="303.6" cy="282.3" rx="13.6" ry="8.6" fill="#F3DCD6" transform="rotate(163.9 303.6 282.3)" opacity=".95"/><ellipse cx="304.9" cy="268.3" rx="13.6" ry="8.6" fill="#F3DCD6" transform="rotate(223.9 304.9 268.3)" opacity=".95"/><ellipse cx="317.7" cy="262.4" rx="13.6" ry="8.6" fill="#F3DCD6" transform="rotate(283.9 317.7 262.4)" opacity=".95"/><ellipse cx="329.2" cy="270.6" rx="13.6" ry="8.6" fill="#F3DCD6" transform="rotate(343.9 329.2 270.6)" opacity=".95"/><ellipse cx="327.9" cy="284.6" rx="13.6" ry="8.6" fill="#F3DCD6" transform="rotate(403.9 327.9 284.6)" opacity=".95"/><ellipse cx="315.1" cy="290.4" rx="13.6" ry="8.6" fill="#F3DCD6" transform="rotate(463.9 315.1 290.4)" opacity=".95"/><circle cx="316.4" cy="276.4" r="7.3" fill="#C97F62"/><ellipse cx="361.8" cy="252.7" rx="18.9" ry="11.9" fill="#E3A9A2" transform="rotate(44.5 361.8 252.7)" opacity=".95"/><ellipse cx="339.0" cy="256.6" rx="18.9" ry="11.9" fill="#E3A9A2" transform="rotate(116.5 339.0 256.6)" opacity=".95"/><ellipse cx="328.3" cy="236.3" rx="18.9" ry="11.9" fill="#E3A9A2" transform="rotate(188.5 328.3 236.3)" opacity=".95"/><ellipse cx="344.4" cy="219.7" rx="18.9" ry="11.9" fill="#E3A9A2" transform="rotate(260.5 344.4 219.7)" opacity=".95"/><ellipse cx="365.0" cy="229.9" rx="18.9" ry="11.9" fill="#E3A9A2" transform="rotate(332.5 365.0 229.9)" opacity=".95"/><circle cx="347.7" cy="239.1" r="10.2" fill="#C97F62"/><ellipse cx="350.8" cy="271.2" rx="15.4" ry="9.7" fill="#F3DCD6" transform="rotate(21.4 350.8 271.2)" opacity=".95"/><ellipse cx="332.3" cy="274.2" rx="15.4" ry="9.7" fill="#F3DCD6" transform="rotate(93.4 332.3 274.2)" opacity=".95"/><ellipse cx="323.6" cy="257.6" rx="15.4" ry="9.7" fill="#F3DCD6" transform="rotate(165.4 323.6 257.6)" opacity=".95"/><ellipse cx="336.8" cy="244.2" rx="15.4" ry="9.7" fill="#F3DCD6" transform="rotate(237.4 336.8 244.2)" opacity=".95"/><ellipse cx="353.6" cy="252.6" rx="15.4" ry="9.7" fill="#F3DCD6" transform="rotate(309.4 353.6 252.6)" opacity=".95"/><circle cx="339.4" cy="260.0" r="8.3" fill="#C97F62"/><ellipse cx="376.8" cy="214.0" rx="16.1" ry="10.1" fill="#E3A9A2" transform="rotate(-5.9 376.8 214.0)" opacity=".95"/><ellipse cx="364.4" cy="229.2" rx="16.1" ry="10.1" fill="#E3A9A2" transform="rotate(66.1 364.4 229.2)" opacity=".95"/><ellipse cx="346.2" cy="222.1" rx="16.1" ry="10.1" fill="#E3A9A2" transform="rotate(138.1 346.2 222.1)" opacity=".95"/><ellipse cx="347.2" cy="202.6" rx="16.1" ry="10.1" fill="#E3A9A2" transform="rotate(210.1 347.2 202.6)" opacity=".95"/><ellipse cx="366.1" cy="197.5" rx="16.1" ry="10.1" fill="#E3A9A2" transform="rotate(282.1 366.1 197.5)" opacity=".95"/><circle cx="360.1" cy="213.1" r="8.6" fill="#C97F62"/><ellipse cx="376.0" cy="247.1" rx="19.4" ry="12.2" fill="#F3DCD6" transform="rotate(147.9 376.0 247.1)" opacity=".95"/><ellipse cx="381.7" cy="224.2" rx="19.4" ry="12.2" fill="#F3DCD6" transform="rotate(219.9 381.7 224.2)" opacity=".95"/><ellipse cx="405.2" cy="222.5" rx="19.4" ry="12.2" fill="#F3DCD6" transform="rotate(291.9 405.2 222.5)" opacity=".95"/><ellipse cx="414.0" cy="244.4" rx="19.4" ry="12.2" fill="#F3DCD6" transform="rotate(363.9 414.0 244.4)" opacity=".95"/><ellipse cx="396.0" cy="259.6" rx="19.4" ry="12.2" fill="#F3DCD6" transform="rotate(435.9 396.0 259.6)" opacity=".95"/><circle cx="394.6" cy="239.5" r="10.4" fill="#C97F62"/><ellipse cx="422.9" cy="228.4" rx="21.6" ry="13.6" fill="#F3DCD6" transform="rotate(110.8 422.9 228.4)" opacity=".95"/><ellipse cx="404.6" cy="209.6" rx="21.6" ry="13.6" fill="#F3DCD6" transform="rotate(182.8 404.6 209.6)" opacity=".95"/><ellipse cx="416.9" cy="186.4" rx="21.6" ry="13.6" fill="#F3DCD6" transform="rotate(254.8 416.9 186.4)" opacity=".95"/><ellipse cx="442.8" cy="190.9" rx="21.6" ry="13.6" fill="#F3DCD6" transform="rotate(326.8 442.8 190.9)" opacity=".95"/><ellipse cx="446.5" cy="216.9" rx="21.6" ry="13.6" fill="#F3DCD6" transform="rotate(398.8 446.5 216.9)" opacity=".95"/><circle cx="426.7" cy="206.4" r="11.6" fill="#C97F62"/><ellipse cx="450.0" cy="210.7" rx="16.1" ry="23.8" fill="#E3A9A2" opacity=".92"/><ellipse cx="479.9" cy="194.8" rx="14.3" ry="9.0" fill="#F3DCD6" transform="rotate(277.9 479.9 194.8)" opacity=".95"/><ellipse cx="493.4" cy="205.8" rx="14.3" ry="9.0" fill="#F3DCD6" transform="rotate(349.9 493.4 205.8)" opacity=".95"/><ellipse cx="487.0" cy="222.1" rx="14.3" ry="9.0" fill="#F3DCD6" transform="rotate(421.9 487.0 222.1)" opacity=".95"/><ellipse cx="469.6" cy="221.0" rx="14.3" ry="9.0" fill="#F3DCD6" transform="rotate(493.9 469.6 221.0)" opacity=".95"/><ellipse cx="465.2" cy="204.2" rx="14.3" ry="9.0" fill="#F3DCD6" transform="rotate(565.9 465.2 204.2)" opacity=".95"/><circle cx="479.0" cy="209.6" r="7.7" fill="#C97F62"/><ellipse cx="487.3" cy="235.7" rx="17.5" ry="11.0" fill="#E3A9A2" transform="rotate(111.8 487.3 235.7)" opacity=".95"/><ellipse cx="477.9" cy="216.6" rx="17.5" ry="11.0" fill="#E3A9A2" transform="rotate(183.8 477.9 216.6)" opacity=".95"/><ellipse cx="493.1" cy="201.7" rx="17.5" ry="11.0" fill="#E3A9A2" transform="rotate(255.8 493.1 201.7)" opacity=".95"/><ellipse cx="512.0" cy="211.6" rx="17.5" ry="11.0" fill="#E3A9A2" transform="rotate(327.8 512.0 211.6)" opacity=".95"/><ellipse cx="508.4" cy="232.6" rx="17.5" ry="11.0" fill="#E3A9A2" transform="rotate(399.8 508.4 232.6)" opacity=".95"/><circle cx="495.7" cy="219.7" r="9.4" fill="#C97F62"/><ellipse cx="531.1" cy="239.0" rx="11.4" ry="16.8" fill="#EFC7C1" opacity=".92"/><ellipse cx="526.2" cy="223.7" rx="12.4" ry="18.3" fill="#D98C86" opacity=".92"/><ellipse cx="559.6" cy="253.0" rx="18.4" ry="11.6" fill="#EFC7C1" transform="rotate(347.9 559.6 253.0)" opacity=".95"/><ellipse cx="554.4" cy="274.7" rx="18.4" ry="11.6" fill="#EFC7C1" transform="rotate(419.9 554.4 274.7)" opacity=".95"/><ellipse cx="532.1" cy="276.6" rx="18.4" ry="11.6" fill="#EFC7C1" transform="rotate(491.9 532.1 276.6)" opacity=".95"/><ellipse cx="523.5" cy="255.9" rx="18.4" ry="11.6" fill="#EFC7C1" transform="rotate(563.9 523.5 255.9)" opacity=".95"/><ellipse cx="540.5" cy="241.3" rx="18.4" ry="11.6" fill="#EFC7C1" transform="rotate(635.9 540.5 241.3)" opacity=".95"/><circle cx="542.0" cy="260.3" r="9.9" fill="#C97F62"/><ellipse cx="590.3" cy="222.7" rx="12.9" ry="8.1" fill="#F3DCD6" transform="rotate(299.4 590.3 222.7)" opacity=".95"/><ellipse cx="599.1" cy="232.9" rx="12.9" ry="8.1" fill="#F3DCD6" transform="rotate(359.4 599.1 232.9)" opacity=".95"/><ellipse cx="594.7" cy="245.5" rx="12.9" ry="8.1" fill="#F3DCD6" transform="rotate(419.4 594.7 245.5)" opacity=".95"/><ellipse cx="581.5" cy="248.1" rx="12.9" ry="8.1" fill="#F3DCD6" transform="rotate(479.4 581.5 248.1)" opacity=".95"/><ellipse cx="572.7" cy="238.0" rx="12.9" ry="8.1" fill="#F3DCD6" transform="rotate(539.4 572.7 238.0)" opacity=".95"/><ellipse cx="577.1" cy="225.3" rx="12.9" ry="8.1" fill="#F3DCD6" transform="rotate(599.4 577.1 225.3)" opacity=".95"/><circle cx="585.9" cy="235.4" r="7.0" fill="#C97F62"/><ellipse cx="581.5" cy="220.7" rx="16.3" ry="10.3" fill="#D98C86" transform="rotate(277.5 581.5 220.7)" opacity=".95"/><ellipse cx="593.4" cy="225.8" rx="16.3" ry="10.3" fill="#D98C86" transform="rotate(322.5 593.4 225.8)" opacity=".95"/><ellipse cx="598.2" cy="237.8" rx="16.3" ry="10.3" fill="#D98C86" transform="rotate(367.5 598.2 237.8)" opacity=".95"/><ellipse cx="593.1" cy="249.7" rx="16.3" ry="10.3" fill="#D98C86" transform="rotate(412.5 593.1 249.7)" opacity=".95"/><ellipse cx="581.1" cy="254.5" rx="16.3" ry="10.3" fill="#D98C86" transform="rotate(457.5 581.1 254.5)" opacity=".95"/><ellipse cx="569.2" cy="249.5" rx="16.3" ry="10.3" fill="#D98C86" transform="rotate(502.5 569.2 249.5)" opacity=".95"/><ellipse cx="564.4" cy="237.5" rx="16.3" ry="10.3" fill="#D98C86" transform="rotate(547.5 564.4 237.5)" opacity=".95"/><ellipse cx="569.5" cy="225.6" rx="16.3" ry="10.3" fill="#D98C86" transform="rotate(592.5 569.5 225.6)" opacity=".95"/><circle cx="581.3" cy="237.6" r="8.8" fill="#C97F62"/><rect width="900" height="675" filter="url(#g1011)" opacity=".55"/></svg>